# xmcd
#
# Track frame offsets: 
#        150
#        12762
#        29927
#        47885
#        64744
#        79868
#        98794
#        115819
#
# Disc length: 1771 seconds
#
# Revision: 1
# Processed by: cddbd v1.5.2PL0 Copyright (c) Steve Scherf et al.
# Submitted via: ExactAudioCopy v1.0b3
#
DISCID=6606e908
DTITLE=Various Artist - Disko
DYEAR=2013
DGENRE=Country
TTITLE0=Disko
TTITLE1=Fake (RMX)
TTITLE2=Love Story
TTITLE3=Beqar
TTITLE4=Krenohu
TTITLE5=Veç unë edhe ti
TTITLE6=Vetëm një Herë
TTITLE7=A M'len pak
EXTD=
EXTT0=
EXTT1=
EXTT2=
EXTT3=
EXTT4=
EXTT5=
EXTT6=
EXTT7=
PLAYORDER=
